<svg height="512pt" viewBox="0 0 512.00049 512" width="512pt" xmlns="http://www.w3.org/2000/svg"><path d="m15.015625 511.992188c.105469 0 421.984375-.003907 421.984375-.003907 7.039062 0 13.132812-4.886719 14.648438-11.761719l60-271.996093c.980468-4.441407-.105469-9.082031-2.957032-12.625-2.847656-3.542969-7.144531-5.605469-11.691406-5.605469h-58.378906l70.027344-145.550781c3.589843-7.464844.449218-16.425781-7.015626-20.019531l-81.101562-39.019532c-3.585938-1.722656-7.707031-1.953125-11.460938-.636718-3.753906 1.3125-6.832031 4.066406-8.558593 7.652343l-51.753907 107.574219h-39.828124c5.121093-8.832031 8.070312-19.074219 8.070312-30 0-25.921875-32.734375-67.078125-48.835938-85.019531-2.84375-3.167969-6.902343-4.980469-11.164062-4.980469-4.257812 0-8.316406 1.8125-11.164062 4.980469-16.238282 18.097656-48.832032 58.984375-48.832032 85.019531 0 10.925781 2.945313 21.167969 8.070313 30h-23.070313v-15c0-1.578125-.308594-3.347656-.773437-4.742188l-30-90c-2.039063-6.125-7.773438-10.257812-14.226563-10.257812-6.457031 0-12.1875 4.132812-14.230468 10.257812l-30 90c-.011719.035157-.019532.070313-.03125.109376-.445313 1.367187-.738282 3.074218-.738282 4.632812v15h-77c-8.285156 0-14.99999975 6.714844-14.99999975 15v361.703125c-.17187525 8.308594 6.52343775 15.289063 15.01171875 15.289063zm409.933594-29.996094h-391.277344l53.382813-242.007813h391.277343zm-302.945313-361.996094h30v90h-30zm119.996094 28.101562c4.796875 1.238282 9.824219 1.898438 15 1.898438 5.179688 0 10.207031-.660156 15-1.898438v61.898438h-30zm179.042969-109.152343 54.066406 26.011719-13.003906 27.035156-27.035157-13.007813c-7.464843-3.589843-16.429687-.449219-20.019531 7.015625-3.59375 7.464844-.453125 16.425782 7.011719 20.019532l27.035156 13.003906-13.007812 27.035156-27.03125-13.007812c-7.464844-3.589844-16.429688-.449219-20.023438 7.015624-3.589844 7.464844-.449218 16.429688 7.015625 20.019532l27.035157 13.007812-17.757813 36.902344h-66.578125zm-115.585938 171.050781h-3.457031v-60h32.324219zm-48.460937-171.765625c15.941406 19.988281 30.003906 42.472656 30.003906 51.765625 0 16.542969-13.457031 30-30 30-16.539062 0-30-13.457031-30-30 0-9.558594 14.097656-31.886719 29.996094-51.765625zm-44.992188 111.765625v60h-30v-60zm-65.8125-60h-18.375l9.1875-27.566406zm-116.1875 60h62v60h-17c-7.039062 0-13.132812 4.894531-14.648437 11.769531l-30.351563 137.59375zm0 0"/><path d="m257 362c-8.28125 0-15 6.714844-15 14.996094v60c0 8.285156 6.71875 15 15 15h120c8.285156 0 15-6.714844 15-15v-60c0-8.28125-6.714844-14.996094-15-14.996094zm105 59.996094h-90v-30h90zm0 0"/></svg>