<svg id="Capa_1" enable-background="new 0 0 511.97 511.97" height="512" viewBox="0 0 511.97 511.97" width="512" xmlns="http://www.w3.org/2000/svg"><path d="m410.117 123.067 36.211 6.211 65.643-65.643-54.318-9.317-9.318-54.318-65.643 65.642 6.211 36.211-15.767 15.767c-41.022-35.986-93.065-55.65-148.136-55.65-124.351 0-225 100.632-225 225 0 124.351 100.632 225 225 225 124.351 0 225-100.632 225-225 0-55.071-19.664-107.114-55.651-148.136zm18.448-60.871 3.105 18.104 18.104 3.105-13.68 13.679-18.104-3.105-3.105-18.104zm-8.565 224.774c0 107.523-87.477 195-195 195s-195-87.477-195-195 87.477-195 195-195c48.374 0 92.685 17.713 126.803 46.984l-42.587 42.587c-23.104-18.493-52.389-29.571-84.216-29.571-74.439 0-135 60.561-135 135s60.561 135 135 135 135-60.561 135-135c0-31.827-11.078-61.112-29.571-84.216l42.587-42.587c29.271 34.119 46.984 78.429 46.984 126.803zm-90 0c0 57.897-47.103 105-105 105s-105-47.103-105-105 47.103-105 105-105c23.55 0 45.314 7.794 62.849 20.938l-43.46 43.46c-5.875-2.817-12.451-4.398-19.389-4.398-24.813 0-45 20.187-45 45s20.187 45 45 45 45-20.187 45-45c0-6.939-1.581-13.514-4.398-19.389l43.46-43.46c13.144 17.535 20.938 39.299 20.938 62.849zm-90 0c0 8.271-6.729 15-15 15s-15-6.729-15-15 6.729-15 15-15 15 6.729 15 15z"/></svg>