<?xml version="1.0"?>
<svg xmlns="http://www.w3.org/2000/svg" id="outline" viewBox="0 0 512 512" width="512" height="512"><path d="M24,472h93.38232A128.84653,128.84653,0,0,0,192,496h72.00049a23.99108,23.99108,0,0,0,22.62323-32H456a7.99977,7.99977,0,0,0,8-8V304h24a8,8,0,0,0,6.65625-12.4375l-32-48A7.99943,7.99943,0,0,0,456,240H424.56836l-7.687-7.687a9.42188,9.42188,0,0,1-2.00489-10.35352l.06153-.14892A9.37874,9.37874,0,0,1,423.63867,216H456a7.99977,7.99977,0,0,0,8-8V144a7.99977,7.99977,0,0,0-8-8H423.63867a9.37431,9.37431,0,0,1-8.6958-5.79883l-.09961-.23974a9.3923,9.3923,0,0,1,2.03809-10.27442l22.88281-22.8833a7.99915,7.99915,0,0,0,0-11.31348L394.50977,40.23584a7.9996,7.9996,0,0,0-11.31348,0L360.313,63.11865a9.39425,9.39425,0,0,1-10.28369,2.03418l-.21875-.09082A9.37874,9.37874,0,0,1,344,56.36133V24a7.99977,7.99977,0,0,0-8-8H272a7.99977,7.99977,0,0,0-8,8V56.36133a9.381,9.381,0,0,1-5.81641,8.70312l-.22216.09229A9.39353,9.39353,0,0,1,247.687,63.11865l-22.8833-22.88281a8,8,0,0,0-11.31348,0L168.23584,85.49023a7.99915,7.99915,0,0,0,0,11.31348l22.88281,22.8833a9.42188,9.42188,0,0,1,2.00489,10.35352l-.06153.14892A9.37874,9.37874,0,0,1,184.36133,136H152a7.99977,7.99977,0,0,0-8,8v64a7.99977,7.99977,0,0,0,8,8h32.36133a9.37431,9.37431,0,0,1,8.6958,5.79883l.09961.23974a9.3923,9.3923,0,0,1-2.03809,10.27442l-7.687,7.687H136a7.99943,7.99943,0,0,0-6.65625,3.5625l-32,48A8,8,0,0,0,104,304h24v88.04517c-.64917-.01368-1.29541-.04517-1.94678-.04517H104.79248L25.56885,376.15527A8.00053,8.00053,0,0,0,16,384v80A7.99977,7.99977,0,0,0,24,472Zm424-24H320V274.42188l17.34375,26.01562A7.99943,7.99943,0,0,0,344,304H448Zm25.05176-160H348.28125l-21.333-32H451.71875ZM207.937,215.91211c-.00244-.00635-.0415-.1001-.04394-.106l-.042-.10107A25.32767,25.32767,0,0,0,184.36133,200H160V152h24.36133a25.32767,25.32767,0,0,0,23.48974-15.70508l.042-.10107.04052-.09668a25.34261,25.34261,0,0,0-5.50146-27.72363L185.20605,91.147,219.147,57.20605l17.22657,17.22608A25.34048,25.34048,0,0,0,264.08789,79.937l.207-.08594A25.32767,25.32767,0,0,0,280,56.36133V32h48V56.36133a25.32544,25.32544,0,0,0,15.69922,23.4873l.20361.085a25.34575,25.34575,0,0,0,27.72363-5.50146L388.853,57.20605,422.794,91.147l-17.22608,17.22657a25.33822,25.33822,0,0,0-5.50488,27.71435c.00244.00635.0415.1001.04394.106l.042.10107A25.32767,25.32767,0,0,0,423.63867,152H448v48H423.63867a25.32767,25.32767,0,0,0-23.48974,15.70508l-.042.10107-.04052.09668A25.3196,25.3196,0,0,0,402.57355,240H364.39734a87.9988,87.9988,0,0,0,2.4469-125.60059l-11.42578,11.20118A72.00829,72.00829,0,0,1,337.002,240H271.03076a72.33638,72.33638,0,0,1-35.73584-42.397L220.03027,202.397A88.19237,88.19237,0,0,0,243.62531,240H205.42645A25.31218,25.31218,0,0,0,207.937,215.91211ZM140.28125,256H297.05176l-21.333,32H118.94824ZM144,304H280a7.99943,7.99943,0,0,0,6.65625-3.5625L304,274.42188V448l-65.37671.00146A23.9966,23.9966,0,0,0,216,416h-.00391l-28.76855.00586A89.17954,89.17954,0,0,0,144,393.79919Zm34.34424,125.6626a7.9995,7.9995,0,0,0,5.65722,2.34375h.00147L215.999,432a8,8,0,0,1,.00342,16H184v16l79.99951.00049A7.99976,7.99976,0,1,1,264.00049,480H192a112.7024,112.7024,0,0,1-67.2002-22.3999A7.99948,7.99948,0,0,0,120,456h-8V408h14.05322A73.46,73.46,0,0,1,178.34424,429.6626ZM32,393.7583l64,12.80029V456H32Z"/><path d="M304,224a48,48,0,1,0-48-48A48.05436,48.05436,0,0,0,304,224Zm0-80a32,32,0,1,1-32,32A32.036,32.036,0,0,1,304,144Z"/><rect x="240" y="336" width="16" height="16"/><rect x="192" y="336" width="32" height="16"/><rect x="216" y="368" width="56" height="16"/><rect x="176" y="368" width="24" height="16"/></svg>
