<svg height="512pt" viewBox="0 0 512.0011 512" width="512pt" xmlns="http://www.w3.org/2000/svg"><path d="m40.460938 313.339844c1.953124 1.953125 4.511718 2.929687 7.070312 2.929687s5.117188-.976562 7.070312-2.929687l151.359376-151.355469 91.632812 91.636719c1.875 1.875 4.421875 2.929687 7.070312 2.929687 2.652344 0 5.195313-1.054687 7.074219-2.929687l53.148438-53.152344c3.90625-3.902344 3.90625-10.234375 0-14.140625s-10.234375-3.90625-14.140625 0l-46.082032 46.078125-91.632812-91.636719c-1.878906-1.875-4.421875-2.929687-7.070312-2.929687-2.652344 0-5.195313 1.054687-7.074219 2.929687l-151.355469 151.359375-23.390625-23.390625 181.820313-181.816406 91.636718 91.636719c1.875 1.875 4.417969 2.929687 7.070313 2.929687 2.652343 0 5.195312-1.054687 7.070312-2.929687l120.765625-120.769532c3.90625-3.902343 3.90625-10.234374 0-14.140624l-3.683594-3.6875 59.035157-15.816407-15.816407 59.035157-2.003906-2c-1.875-1.875-4.417968-2.929688-7.070312-2.929688s-5.195313 1.054688-7.070313 2.929688l-48.578125 48.578124c-3.90625 3.90625-3.90625 10.238282 0 14.144532 3.90625 3.902344 10.234375 3.902344 14.144532 0l41.507812-41.507813 7.175781 7.175781c2.527344 2.523438 6.207031 3.515626 9.660157 2.589844 3.449218-.925781 6.144531-3.621094 7.070312-7.070312l24.785156-92.5c.925782-3.453125-.0625-7.132813-2.589844-9.660156-2.523437-2.527344-6.207031-3.511719-9.65625-2.589844l-92.5 24.785156c-3.449218.925781-6.144531 3.621094-7.070312 7.074219-.925781 3.449219.0625 7.132812 2.585938 9.65625l8.863281 8.863281-106.625 106.625-91.636719-91.636719c-3.902344-3.902343-10.234375-3.90625-14.140625 0l-195.960937 195.960938c-3.90625 3.90625-3.90625 10.238281 0 14.144531zm0 0"/><path d="m502 492h-10v-302.332031c0-5.523438-4.476562-10-10-10h-56c-5.523438 0-10 4.476562-10 10v302.332031h-23v-183c0-5.519531-4.476562-10-10-10h-56c-5.523438 0-10 4.480469-10 10v183h-23v-130c0-5.519531-4.476562-10-10-10h-56c-5.523438 0-10 4.480469-10 10v130h-23v-183c0-5.519531-4.476562-10-10-10h-56c-5.523438 0-10 4.480469-10 10v183h-23v-91.667969c0-5.519531-4.476562-10-10-10h-56c-5.523438 0-10 4.480469-10 10v91.667969h-10c-5.523438 0-10 4.480469-10 10 0 5.523438 4.476562 10 10 10h492c5.523438 0 10-4.476562 10-10 0-5.519531-4.476562-10-10-10zm-462 0v-81.667969h36v81.667969zm99 0v-173h36v173zm99 0v-120h36v120zm99 0v-173h36v173zm99 0v-292.332031h36v292.332031zm0 0"/><path d="m379.03125 158.039062c-1.859375 1.859376-2.929688 4.441407-2.929688 7.070313 0 2.640625 1.070313 5.210937 2.929688 7.070313 1.859375 1.871093 4.4375 2.929687 7.070312 2.929687 2.628907 0 5.207032-1.058594 7.070313-2.929687 1.867187-1.859376 2.929687-4.4375 2.929687-7.070313 0-2.628906-1.0625-5.199219-2.929687-7.070313-1.863281-1.859374-4.441406-2.929687-7.070313-2.929687-2.632812 0-5.210937 1.070313-7.070312 2.929687zm0 0"/></svg>