<svg id="Capa_1" enable-background="new 0 0 512 512" height="512" viewBox="0 0 512 512" width="512" xmlns="http://www.w3.org/2000/svg"><g><path d="m150 434.028 132.042-88.028-132.042-88.028zm30-120 47.958 31.972-47.958 31.972z"/><path d="m105 91c-24.813 0-45 20.187-45 45s20.187 45 45 45 45-20.187 45-45-20.187-45-45-45zm0 60c-8.271 0-15-6.729-15-15s6.729-15 15-15 15 6.729 15 15-6.729 15-15 15z"/><path d="m285 181c24.813 0 45-20.187 45-45s-20.187-45-45-45-45 20.187-45 45 20.187 45 45 45zm0-60c8.271 0 15 6.729 15 15s-6.729 15-15 15-15-6.729-15-15 6.729-15 15-15z"/><path d="m512 231.907-122 60v-80.907h-31.596c19.483-19.073 31.596-45.646 31.596-75 0-57.897-47.103-105-105-105-38.151 0-71.612 20.455-90 50.972-18.388-30.517-51.849-50.972-90-50.972-57.897 0-105 47.103-105 105 0 29.354 12.113 55.927 31.596 75h-31.596v270h390v-80.907l122 60zm-227-170.907c41.355 0 75 33.645 75 75s-33.645 75-75 75-75-33.645-75-75 33.645-75 75-75zm-73.404 150h-33.193c6.377-6.243 11.965-13.287 16.596-20.972 4.632 7.685 10.22 14.729 16.597 20.972zm-181.596-75c0-41.355 33.645-75 75-75s75 33.645 75 75-33.645 75-75 75-75-33.645-75-75zm330 315h-330v-210h330zm122-39.093-92-45.246v-41.322l92-45.246z"/></g></svg>